<?xml version="1.0" encoding="UTF-8"?>
<svg id="Layer_1" data-name="Layer 1" xmlns="http://www.w3.org/2000/svg" viewBox="0 0 1584 1224">
  <defs>
    <style>
      .cls-1 {
        fill: #fff;
      }
    </style>
  </defs>
  <path class="cls-1" d="M819.5,798.42l-92.22-129.64c57.42-3.98,95.52-46.62,95.52-104.61,0-40.37-19.33-69.37-41.51-84.15-28.43-19.33-66.52-21.04-92.11-21.04h-60.84v379.23h42.07v-166.02h10.8l114.28,164.38v1.64h104.61v-39.8h-80.62ZM670.43,634.67v-135.88h25.58c18.19,0,37.53,1.13,54.58,10.8,23.88,13.64,30.13,34.68,30.13,55.72,0,44.35-31.27,69.36-83.58,69.36h-26.72Z"/>
  <polygon class="cls-1" points="752.46 385.78 628.35 385.78 628.35 425.58 752.46 425.58 857.08 425.58 857.08 765.01 899.15 765.01 899.15 385.78 752.46 385.78"/>
</svg>